# xmcd CD database file
#
# Track frame offsets:
#	150
#	13275
#	35871
#	64662
#	83352
#	107874
#	125924
#	143248
#
# Disc length: 2167 seconds
#
# Revision: 0
# Processed by: cddbd v1.5.2PL0 Copyright (c) Steve Scherf et al.
# Submitted via: CDex 1.51
#
DISCID=71087508
DTITLE=Guglielmo Pagnozzi - Jazz Gang
DYEAR=2006
DGENRE=Jazz
TTITLE0=La Dolce Vita
TTITLE1=The Mooche
TTITLE2=Memories Of You
TTITLE3=Resolution
TTITLE4=Perdido
TTITLE5=Bemsha Swing
TTITLE6=Come Sunday
TTITLE7=St. James Infirmary
EXTD=YEAR: 2006
EXTT0=
EXTT1=
EXTT2=
EXTT3=
EXTT4=
EXTT5=
EXTT6=
EXTT7=
PLAYORDER=
